<svg width="80" height="80" viewBox="0 0 112 113" fill="none" xmlns="http://www.w3.org/2000/svg">
<path d="M56 65.9167C66.2946 65.9167 74.6666 57.4699 74.6666 47.0833C74.6666 36.6967 66.2946 28.25 56 28.25C45.7053 28.25 37.3333 36.6967 37.3333 47.0833C37.3333 57.4699 45.7053 65.9167 56 65.9167ZM56 37.6667C61.1473 37.6667 65.3333 41.89 65.3333 47.0833C65.3333 52.2766 61.1473 56.5 56 56.5C50.8526 56.5 46.6666 52.2766 46.6666 47.0833C46.6666 41.89 50.8526 37.6667 56 37.6667Z" fill="black"/>
<path d="M53.2933 102.708C54.0832 103.277 55.0295 103.583 56 103.583C56.9706 103.583 57.9169 103.277 58.7067 102.708C60.1253 101.695 93.4687 77.4051 93.3333 47.0834C93.3333 26.315 76.5847 9.41675 56 9.41675C35.4153 9.41675 18.6667 26.315 18.6667 47.0599C18.5313 77.4051 51.8747 101.695 53.2933 102.708ZM56 18.8334C71.442 18.8334 84 31.5035 84 47.107C84.098 68.0025 63.5227 86.7652 56 92.919C48.482 86.7605 27.902 67.9931 28 47.0834C28 31.5035 40.558 18.8334 56 18.8334Z" fill="black"/>
</svg>
