<svg width="80" height="80" viewBox="0 0 117 118" fill="none" xmlns="http://www.w3.org/2000/svg">
<path d="M99.8741 84.2717L80.0572 66.0997C79.1205 65.241 77.8895 64.7831 76.6243 64.8225C75.359 64.8619 74.1585 65.3957 73.2761 66.3111L61.6102 78.411C58.8022 77.8702 53.157 76.0953 47.346 70.2494C41.535 64.3838 39.7751 58.6755 39.2535 55.8632L51.2411 44.0927C52.1499 43.2034 52.6799 41.9924 52.719 40.716C52.7581 39.4395 52.3033 38.1978 51.4507 37.2536L33.4376 17.2723C32.5847 16.3251 31.3993 15.7506 30.1331 15.6707C28.8669 15.5909 27.6198 16.0119 26.6565 16.8445L16.0777 25.9945C15.2349 26.8476 14.7318 27.983 14.664 29.1854C14.5908 30.4145 13.1966 59.531 35.5826 82.1182C55.1118 101.809 79.5746 103.25 86.3118 103.25C87.2966 103.25 87.9011 103.221 88.062 103.211C89.254 103.143 90.3792 102.634 91.221 101.78L100.288 91.1059C101.117 90.1375 101.538 88.8806 101.46 87.6037C101.383 86.3268 100.814 85.1311 99.8741 84.2717Z" fill="black"/>
</svg>
